<mxfile host="app.diagrams.net" agent="Mozilla/5.0 (Windows NT 10.0; Win64; x64; rv:138.0) Gecko/20100101 Firefox/138.0" version="27.0.5">
  <diagram name="Page-1" id="eXHj7AOfJKGbVyevZSiI">
    <mxGraphModel dx="1123" dy="673" grid="1" gridSize="10" guides="1" tooltips="1" connect="1" arrows="1" fold="1" page="1" pageScale="1" pageWidth="3300" pageHeight="4681" math="0" shadow="0">
      <root>
        <mxCell id="0" />
        <mxCell id="1" parent="0" />
        <mxCell id="gcImDIefWiv_lpoSSCMW-3" style="edgeStyle=orthogonalEdgeStyle;rounded=0;orthogonalLoop=1;jettySize=auto;html=1;exitX=1;exitY=0.5;exitDx=0;exitDy=0;entryX=0;entryY=0.5;entryDx=0;entryDy=0;" edge="1" parent="1" source="gcImDIefWiv_lpoSSCMW-1" target="gcImDIefWiv_lpoSSCMW-2">
          <mxGeometry relative="1" as="geometry" />
        </mxCell>
        <mxCell id="gcImDIefWiv_lpoSSCMW-1" value="data&#xa;Raw EEG Data" style="rectangle;fillColor=#fff2cc;strokeColor=#d6b656;" name="data" vertex="1" parent="1">
          <mxGeometry x="340" y="230" width="100" height="50" as="geometry" />
        </mxCell>
        <mxCell id="gcImDIefWiv_lpoSSCMW-5" style="edgeStyle=orthogonalEdgeStyle;rounded=0;orthogonalLoop=1;jettySize=auto;html=1;exitX=1;exitY=0.5;exitDx=0;exitDy=0;entryX=0.5;entryY=0;entryDx=0;entryDy=0;" edge="1" parent="1" source="gcImDIefWiv_lpoSSCMW-2" target="gcImDIefWiv_lpoSSCMW-4">
          <mxGeometry relative="1" as="geometry" />
        </mxCell>
        <mxCell id="gcImDIefWiv_lpoSSCMW-2" value="transform" style="rounded=1;whiteSpace=wrap;html=1;arcSize=50;fillColor=#f8cecc;strokeColor=#b85450;" name="transform" vertex="1" parent="1">
          <mxGeometry x="520" y="230" width="100" height="50" as="geometry" />
        </mxCell>
        <mxCell id="gcImDIefWiv_lpoSSCMW-8" style="edgeStyle=orthogonalEdgeStyle;rounded=0;orthogonalLoop=1;jettySize=auto;html=1;exitX=0.5;exitY=1;exitDx=0;exitDy=0;entryX=1;entryY=0.5;entryDx=0;entryDy=0;" edge="1" parent="1" source="gcImDIefWiv_lpoSSCMW-4" target="gcImDIefWiv_lpoSSCMW-6">
          <mxGeometry relative="1" as="geometry" />
        </mxCell>
        <mxCell id="gcImDIefWiv_lpoSSCMW-4" value="data&#xa;Preprocessed&#xa;EEG Data" style="rectangle;fillColor=#fff2cc;strokeColor=#d6b656;" name="data" vertex="1" parent="1">
          <mxGeometry x="650" y="330" width="100" height="50" as="geometry" />
        </mxCell>
        <mxCell id="gcImDIefWiv_lpoSSCMW-10" style="edgeStyle=orthogonalEdgeStyle;rounded=0;orthogonalLoop=1;jettySize=auto;html=1;exitX=0;exitY=0.5;exitDx=0;exitDy=0;entryX=0.5;entryY=0;entryDx=0;entryDy=0;" edge="1" parent="1" source="gcImDIefWiv_lpoSSCMW-6" target="gcImDIefWiv_lpoSSCMW-9">
          <mxGeometry relative="1" as="geometry" />
        </mxCell>
        <mxCell id="gcImDIefWiv_lpoSSCMW-6" value="transform" style="rounded=1;whiteSpace=wrap;html=1;arcSize=50;fillColor=#f8cecc;strokeColor=#b85450;" name="transform" vertex="1" parent="1">
          <mxGeometry x="520" y="430" width="100" height="50" as="geometry" />
        </mxCell>
        <mxCell id="gcImDIefWiv_lpoSSCMW-12" style="edgeStyle=orthogonalEdgeStyle;rounded=0;orthogonalLoop=1;jettySize=auto;html=1;exitX=0.5;exitY=1;exitDx=0;exitDy=0;entryX=0.5;entryY=0;entryDx=0;entryDy=0;" edge="1" parent="1" source="gcImDIefWiv_lpoSSCMW-9" target="gcImDIefWiv_lpoSSCMW-11">
          <mxGeometry relative="1" as="geometry" />
        </mxCell>
        <mxCell id="gcImDIefWiv_lpoSSCMW-9" value="data&#xa;Statistical Features" style="rectangle;fillColor=#fff2cc;strokeColor=#d6b656;" name="data" vertex="1" parent="1">
          <mxGeometry x="390" y="530" width="100" height="50" as="geometry" />
        </mxCell>
        <mxCell id="gcImDIefWiv_lpoSSCMW-14" style="edgeStyle=orthogonalEdgeStyle;rounded=0;orthogonalLoop=1;jettySize=auto;html=1;entryX=0.5;entryY=0;entryDx=0;entryDy=0;" edge="1" parent="1" source="gcImDIefWiv_lpoSSCMW-11" target="gcImDIefWiv_lpoSSCMW-13">
          <mxGeometry relative="1" as="geometry" />
        </mxCell>
        <mxCell id="gcImDIefWiv_lpoSSCMW-11" value="generate:train" style="rounded=1;whiteSpace=wrap;html=1;arcSize=50;fillColor=#e1d5e7;strokeColor=#9673a6;" name="generate:train" vertex="1" parent="1">
          <mxGeometry x="390" y="660" width="100" height="50" as="geometry" />
        </mxCell>
        <mxCell id="gcImDIefWiv_lpoSSCMW-16" style="edgeStyle=orthogonalEdgeStyle;rounded=0;orthogonalLoop=1;jettySize=auto;html=1;exitX=0.5;exitY=1;exitDx=0;exitDy=0;entryX=0.5;entryY=0;entryDx=0;entryDy=0;" edge="1" parent="1" source="gcImDIefWiv_lpoSSCMW-13" target="gcImDIefWiv_lpoSSCMW-15">
          <mxGeometry relative="1" as="geometry" />
        </mxCell>
        <mxCell id="gcImDIefWiv_lpoSSCMW-13" value="model:hybrid&#xa;ANFIS" style="shape=hexagon;perimeter=hexagonPerimeter2;fillColor=#b0e3e6;strokeColor=#0e8088;" name="model" vertex="1" parent="1">
          <mxGeometry x="380" y="790" width="120" height="50" as="geometry" />
        </mxCell>
        <mxCell id="gcImDIefWiv_lpoSSCMW-21" style="edgeStyle=orthogonalEdgeStyle;rounded=0;orthogonalLoop=1;jettySize=auto;html=1;exitX=0.5;exitY=1;exitDx=0;exitDy=0;entryX=0.5;entryY=0;entryDx=0;entryDy=0;" edge="1" parent="1" source="gcImDIefWiv_lpoSSCMW-15" target="gcImDIefWiv_lpoSSCMW-19">
          <mxGeometry relative="1" as="geometry" />
        </mxCell>
        <mxCell id="gcImDIefWiv_lpoSSCMW-15" value="infer:deduce" style="rounded=1;whiteSpace=wrap;html=1;arcSize=50;fillColor=#bac8d3;strokeColor=#23445d;" name="infer:deduce" vertex="1" parent="1">
          <mxGeometry x="390" y="920" width="100" height="50" as="geometry" />
        </mxCell>
        <mxCell id="gcImDIefWiv_lpoSSCMW-18" style="edgeStyle=orthogonalEdgeStyle;rounded=0;orthogonalLoop=1;jettySize=auto;html=1;exitX=0;exitY=0.5;exitDx=0;exitDy=0;entryX=1;entryY=0.5;entryDx=0;entryDy=0;" edge="1" parent="1" source="gcImDIefWiv_lpoSSCMW-17" target="gcImDIefWiv_lpoSSCMW-15">
          <mxGeometry relative="1" as="geometry" />
        </mxCell>
        <mxCell id="gcImDIefWiv_lpoSSCMW-17" value="data&#xa;Patient EEG&#xa;Signals" style="rectangle;fillColor=#fff2cc;strokeColor=#d6b656;" name="data" vertex="1" parent="1">
          <mxGeometry x="570" y="920" width="100" height="50" as="geometry" />
        </mxCell>
        <mxCell id="gcImDIefWiv_lpoSSCMW-19" value="symbol&#xa;Detected Epilectic&#xa;Seizure" style="rectangle;fillColor=#dae8fc;strokeColor=#6c8ebf;" name="symbol" vertex="1" parent="1">
          <mxGeometry x="390" y="1050" width="100" height="50" as="geometry" />
        </mxCell>
      </root>
    </mxGraphModel>
  </diagram>
</mxfile>
